# Blender v2.77 (sub 0) OBJ File: 'Pourritoupourri.blend'
# www.blender.org
mtllib Pourritoupourri.mtl
o Cube
v 0.278275 -0.260000 -0.260000
v 0.278275 -0.260000 0.260000
v -0.260000 -0.260000 0.260000
v -0.260000 -0.260000 -0.260000
v 0.278274 0.260000 -0.260000
v 0.278274 0.260000 0.260000
v -0.260000 0.260000 0.260000
v -0.260000 0.260000 -0.260000
v 0.806583 -0.260000 -0.260000
v 0.806582 -0.260000 0.260000
v 0.278275 -0.260000 0.260000
v 0.278275 -0.260000 -0.260000
v 0.806583 0.260000 -0.260000
v 0.806583 0.260000 0.260000
v 0.278275 0.260000 0.260000
v 0.278275 0.260000 -0.260000
v 1.334857 -0.260000 -0.260000
v 1.334920 -0.260000 0.260000
v 0.806582 -0.260000 0.260000
v 0.806582 -0.260000 -0.260000
v 1.334893 0.260000 -0.260000
v 1.334917 0.260000 0.260000
v 0.806582 0.260000 0.260000
v 0.806582 0.260000 -0.260000
v 1.995945 -0.260000 -0.260000
v 1.995945 -0.260000 0.260000
v 1.334889 -0.260000 0.260000
v 1.334889 -0.260000 -0.260000
v 1.995945 0.260000 -0.260000
v 1.995945 0.260000 0.260000
v 1.334888 0.260000 0.260000
v 1.334889 0.260000 -0.260000
v 2.080000 -0.312000 -0.312000
v 2.080000 -0.312000 0.312000
v 1.995945 -0.260000 0.260000
v 1.995945 -0.260000 -0.260000
v 2.080000 0.312000 -0.312000
v 2.080000 0.312000 0.312000
v 1.995944 0.260000 0.260000
v 1.995944 0.260000 -0.260000
v -0.260001 -0.260000 -0.260000
v -0.260001 -0.260000 0.260000
v -0.779356 -0.260000 0.260000
v -0.779355 -0.260000 -0.260000
v -0.260001 0.260000 -0.260000
v -0.260000 0.260000 0.260000
v -0.779356 0.260000 0.260000
v -0.779356 0.260000 -0.260000
v -0.779357 -0.260000 -0.260000
v -0.779357 -0.260000 0.260000
v -1.302353 -0.260000 0.260000
v -1.302353 -0.260000 -0.260000
v -0.779382 0.260000 -0.260000
v -0.779366 0.260000 0.260000
v -1.302353 0.260000 0.260000
v -1.302353 0.260000 -0.260000
v -1.302353 -0.260000 -0.260000
v -1.302352 -0.260000 0.260000
v -1.817004 -0.260000 0.260000
v -1.817004 -0.260000 -0.260000
v -1.302348 0.260000 -0.260000
v -1.302349 0.260000 0.260000
v -1.817004 0.260000 0.260000
v -1.817004 0.260000 -0.260000
v -0.203718 0.260000 -0.052000
v -0.203718 0.260000 0.052000
v -0.723718 0.260000 0.052000
v -0.723717 0.260000 -0.052000
v -0.203717 0.390000 -0.052000
v -0.203718 0.390000 0.052000
v -0.723718 0.390000 0.052000
v -0.723718 0.390000 -0.052000
v 0.313716 0.260000 -0.052000
v 0.313716 0.260000 0.052000
v -0.203718 0.260000 0.052000
v -0.203718 0.260000 -0.052000
v 0.313716 0.390000 -0.052000
v 0.313716 0.390000 0.052000
v -0.203718 0.390000 0.052000
v -0.203718 0.390000 -0.052000
v 0.836713 0.260000 -0.052000
v 0.836713 0.260000 0.052000
v 0.313716 0.260000 0.052000
v 0.313716 0.260000 -0.052000
v 0.836713 0.390000 -0.052000
v 0.836713 0.390000 0.052000
v 0.313716 0.390000 0.052000
v 0.313716 0.390000 -0.052000
v 1.356928 0.260000 -0.052000
v 1.356928 0.260000 0.052000
v 0.836929 0.260000 0.052000
v 0.836929 0.260000 -0.052000
v 1.356929 0.390000 -0.052000
v 1.356928 0.390000 0.052000
v 0.836929 0.390000 0.052000
v 0.836929 0.390000 -0.052000
v 1.743433 0.260000 -0.052000
v 1.743433 0.260000 0.052000
v 1.357144 0.260000 0.052000
v 1.357144 0.260000 -0.052000
v 1.743432 0.390000 -0.052000
v 1.743433 0.390000 0.052000
v 1.356930 0.390000 0.052000
v 1.356930 0.390000 -0.052000
v 0.925566 -0.750649 -0.065000
v 0.925566 -0.750649 0.065000
v 0.731216 -0.750649 0.065000
v 0.731217 -0.750649 -0.065000
v 0.925566 -0.260000 -0.065000
v 0.925566 -0.260000 0.065000
v 0.731216 -0.260000 0.065000
v 0.731216 -0.260000 -0.065000
v -0.074072 -0.750648 -0.065000
v -0.074072 -0.750648 0.065000
v -0.268422 -0.750648 0.065000
v -0.268422 -0.750648 -0.065000
v 0.013271 -0.260000 -0.065000
v 0.013271 -0.260000 0.065000
v -0.162946 -0.260000 0.065000
v -0.162946 -0.260000 -0.065000
v 0.039680 -0.504099 -0.065000
v 0.039679 -0.504044 0.065000
v -0.034104 -0.526132 0.065000
v -0.034107 -0.526132 -0.065000
v 0.023829 -0.260000 -0.065000
v 0.023787 -0.260000 0.065000
v 0.013270 -0.260000 0.065000
v 0.013270 -0.260000 -0.065000
v 0.278275 -0.260000 -0.260000
v 0.278275 -0.260000 -0.260000
v 0.278275 -0.260000 0.260000
v 0.278275 -0.260000 0.260000
v -0.260000 -0.260000 -0.260000
v -0.260000 -0.260000 -0.260000
v 0.278274 0.260000 -0.260000
v 0.278274 0.260000 -0.260000
v -0.260000 -0.260000 0.260000
v -0.260000 -0.260000 0.260000
v 0.278274 0.260000 0.260000
v 0.278274 0.260000 0.260000
v -0.260000 0.260000 0.260000
v -0.260000 0.260000 0.260000
v -0.260000 0.260000 -0.260000
v -0.260000 0.260000 -0.260000
v 0.806583 -0.260000 -0.260000
v 0.806583 -0.260000 -0.260000
v 0.806582 -0.260000 0.260000
v 0.806582 -0.260000 0.260000
v 0.278275 -0.260000 -0.260000
v 0.278275 -0.260000 -0.260000
v 0.806583 0.260000 -0.260000
v 0.806583 0.260000 -0.260000
v 0.278275 -0.260000 0.260000
v 0.278275 -0.260000 0.260000
v 0.806583 0.260000 0.260000
v 0.806583 0.260000 0.260000
v 0.278275 0.260000 0.260000
v 0.278275 0.260000 0.260000
v 0.278275 0.260000 -0.260000
v 0.278275 0.260000 -0.260000
v 1.334857 -0.260000 -0.260000
v 1.334857 -0.260000 -0.260000
v 1.334920 -0.260000 0.260000
v 1.334920 -0.260000 0.260000
v 0.806582 -0.260000 -0.260000
v 0.806582 -0.260000 -0.260000
v 1.334893 0.260000 -0.260000
v 1.334893 0.260000 -0.260000
v 0.806582 -0.260000 0.260000
v 0.806582 -0.260000 0.260000
v 1.334917 0.260000 0.260000
v 1.334917 0.260000 0.260000
v 0.806582 0.260000 0.260000
v 0.806582 0.260000 0.260000
v 0.806582 0.260000 -0.260000
v 0.806582 0.260000 -0.260000
v 1.995945 -0.260000 -0.260000
v 1.995945 -0.260000 -0.260000
v 1.995945 -0.260000 0.260000
v 1.995945 -0.260000 0.260000
v 1.334889 -0.260000 -0.260000
v 1.334889 -0.260000 -0.260000
v 1.995945 0.260000 -0.260000
v 1.995945 0.260000 -0.260000
v 1.334889 -0.260000 0.260000
v 1.334889 -0.260000 0.260000
v 1.995945 0.260000 0.260000
v 1.995945 0.260000 0.260000
v 1.334888 0.260000 0.260000
v 1.334888 0.260000 0.260000
v 1.334889 0.260000 -0.260000
v 1.334889 0.260000 -0.260000
v 2.080000 -0.312000 -0.312000
v 2.080000 -0.312000 -0.312000
v 2.080000 -0.312000 0.312000
v 2.080000 -0.312000 0.312000
v 1.995945 -0.260000 -0.260000
v 1.995945 -0.260000 -0.260000
v 2.080000 0.312000 -0.312000
v 2.080000 0.312000 -0.312000
v 1.995945 -0.260000 0.260000
v 1.995945 -0.260000 0.260000
v 2.080000 0.312000 0.312000
v 2.080000 0.312000 0.312000
v 1.995944 0.260000 0.260000
v 1.995944 0.260000 0.260000
v 1.995944 0.260000 -0.260000
v 1.995944 0.260000 -0.260000
v -0.260001 -0.260000 -0.260000
v -0.260001 -0.260000 -0.260000
v -0.260001 -0.260000 0.260000
v -0.260001 -0.260000 0.260000
v -0.779355 -0.260000 -0.260000
v -0.779355 -0.260000 -0.260000
v -0.260001 0.260000 -0.260000
v -0.260001 0.260000 -0.260000
v -0.779356 -0.260000 0.260000
v -0.779356 -0.260000 0.260000
v -0.260000 0.260000 0.260000
v -0.260000 0.260000 0.260000
v -0.779356 0.260000 0.260000
v -0.779356 0.260000 0.260000
v -0.779356 0.260000 -0.260000
v -0.779356 0.260000 -0.260000
v -0.779357 -0.260000 -0.260000
v -0.779357 -0.260000 -0.260000
v -0.779357 -0.260000 0.260000
v -0.779357 -0.260000 0.260000
v -1.302353 -0.260000 -0.260000
v -1.302353 -0.260000 -0.260000
v -0.779382 0.260000 -0.260000
v -0.779382 0.260000 -0.260000
v -1.302353 -0.260000 0.260000
v -1.302353 -0.260000 0.260000
v -0.779366 0.260000 0.260000
v -0.779366 0.260000 0.260000
v -1.302353 0.260000 0.260000
v -1.302353 0.260000 0.260000
v -1.302353 0.260000 -0.260000
v -1.302353 0.260000 -0.260000
v -1.302353 -0.260000 -0.260000
v -1.302353 -0.260000 -0.260000
v -1.302352 -0.260000 0.260000
v -1.302352 -0.260000 0.260000
v -1.817004 -0.260000 -0.260000
v -1.817004 -0.260000 -0.260000
v -1.302348 0.260000 -0.260000
v -1.302348 0.260000 -0.260000
v -1.817004 -0.260000 0.260000
v -1.817004 -0.260000 0.260000
v -1.302349 0.260000 0.260000
v -1.302349 0.260000 0.260000
v -1.817004 0.260000 0.260000
v -1.817004 0.260000 0.260000
v -1.817004 0.260000 -0.260000
v -1.817004 0.260000 -0.260000
v -0.203718 0.260000 -0.052000
v -0.203718 0.260000 -0.052000
v -0.203718 0.260000 0.052000
v -0.203718 0.260000 0.052000
v -0.723717 0.260000 -0.052000
v -0.723717 0.260000 -0.052000
v -0.203717 0.390000 -0.052000
v -0.203717 0.390000 -0.052000
v -0.723718 0.260000 0.052000
v -0.723718 0.260000 0.052000
v -0.203718 0.390000 0.052000
v -0.203718 0.390000 0.052000
v -0.723718 0.390000 0.052000
v -0.723718 0.390000 0.052000
v -0.723718 0.390000 -0.052000
v -0.723718 0.390000 -0.052000
v 0.313716 0.260000 -0.052000
v 0.313716 0.260000 -0.052000
v 0.313716 0.260000 0.052000
v 0.313716 0.260000 0.052000
v -0.203718 0.260000 -0.052000
v -0.203718 0.260000 -0.052000
v 0.313716 0.390000 -0.052000
v 0.313716 0.390000 -0.052000
v -0.203718 0.260000 0.052000
v -0.203718 0.260000 0.052000
v 0.313716 0.390000 0.052000
v 0.313716 0.390000 0.052000
v -0.203718 0.390000 0.052000
v -0.203718 0.390000 0.052000
v -0.203718 0.390000 -0.052000
v -0.203718 0.390000 -0.052000
v 0.836713 0.260000 -0.052000
v 0.836713 0.260000 -0.052000
v 0.836713 0.260000 0.052000
v 0.836713 0.260000 0.052000
v 0.313716 0.260000 -0.052000
v 0.313716 0.260000 -0.052000
v 0.836713 0.390000 -0.052000
v 0.836713 0.390000 -0.052000
v 0.313716 0.260000 0.052000
v 0.313716 0.260000 0.052000
v 0.836713 0.390000 0.052000
v 0.836713 0.390000 0.052000
v 0.313716 0.390000 0.052000
v 0.313716 0.390000 0.052000
v 0.313716 0.390000 -0.052000
v 0.313716 0.390000 -0.052000
v 1.356928 0.260000 -0.052000
v 1.356928 0.260000 -0.052000
v 1.356928 0.260000 0.052000
v 1.356928 0.260000 0.052000
v 0.836929 0.260000 -0.052000
v 0.836929 0.260000 -0.052000
v 1.356929 0.390000 -0.052000
v 1.356929 0.390000 -0.052000
v 0.836929 0.260000 0.052000
v 0.836929 0.260000 0.052000
v 1.356928 0.390000 0.052000
v 1.356928 0.390000 0.052000
v 0.836929 0.390000 0.052000
v 0.836929 0.390000 0.052000
v 0.836929 0.390000 -0.052000
v 0.836929 0.390000 -0.052000
v 1.743433 0.260000 -0.052000
v 1.743433 0.260000 -0.052000
v 1.743433 0.260000 0.052000
v 1.743433 0.260000 0.052000
v 1.357144 0.260000 -0.052000
v 1.357144 0.260000 -0.052000
v 1.743432 0.390000 -0.052000
v 1.743432 0.390000 -0.052000
v 1.357144 0.260000 0.052000
v 1.357144 0.260000 0.052000
v 1.743433 0.390000 0.052000
v 1.743433 0.390000 0.052000
v 1.356930 0.390000 0.052000
v 1.356930 0.390000 0.052000
v 1.356930 0.390000 -0.052000
v 1.356930 0.390000 -0.052000
v 0.925566 -0.750649 -0.065000
v 0.925566 -0.750649 -0.065000
v 0.925566 -0.750649 0.065000
v 0.925566 -0.750649 0.065000
v 0.731217 -0.750649 -0.065000
v 0.731217 -0.750649 -0.065000
v 0.925566 -0.260000 -0.065000
v 0.925566 -0.260000 -0.065000
v 0.731216 -0.750649 0.065000
v 0.731216 -0.750649 0.065000
v 0.925566 -0.260000 0.065000
v 0.925566 -0.260000 0.065000
v 0.731216 -0.260000 0.065000
v 0.731216 -0.260000 0.065000
v 0.731216 -0.260000 -0.065000
v 0.731216 -0.260000 -0.065000
v -0.074072 -0.750648 -0.065000
v -0.074072 -0.750648 -0.065000
v -0.074072 -0.750648 0.065000
v -0.074072 -0.750648 0.065000
v -0.268422 -0.750648 -0.065000
v -0.268422 -0.750648 -0.065000
v 0.013271 -0.260000 -0.065000
v 0.013271 -0.260000 -0.065000
v -0.268422 -0.750648 0.065000
v -0.268422 -0.750648 0.065000
v 0.013271 -0.260000 0.065000
v 0.013271 -0.260000 0.065000
v -0.162946 -0.260000 0.065000
v -0.162946 -0.260000 0.065000
v -0.162946 -0.260000 -0.065000
v -0.162946 -0.260000 -0.065000
v 0.039680 -0.504099 -0.065000
v 0.039680 -0.504099 -0.065000
v 0.039679 -0.504044 0.065000
v 0.039679 -0.504044 0.065000
v -0.034107 -0.526132 -0.065000
v -0.034107 -0.526132 -0.065000
v 0.023829 -0.260000 -0.065000
v 0.023829 -0.260000 -0.065000
v -0.034104 -0.526132 0.065000
v -0.034104 -0.526132 0.065000
v 0.023787 -0.260000 0.065000
v 0.023787 -0.260000 0.065000
v 0.013270 -0.260000 0.065000
v 0.013270 -0.260000 0.065000
v 0.013270 -0.260000 -0.065000
v 0.013270 -0.260000 -0.065000
vt 0.284973 0.685997
vt 0.284973 0.814388
vt 0.156582 0.814388
vt 0.156582 0.685997
vt 0.585718 0.425865
vt 0.714109 0.425865
vt 0.714109 0.554255
vt 0.585718 0.554255
vt 0.716563 0.295798
vt 0.716563 0.424188
vt 0.588172 0.424189
vt 0.588172 0.295798
vt 0.678899 0.000838
vt 0.807290 0.000838
vt 0.807290 0.129228
vt 0.678899 0.129228
vt 0.710739 0.685997
vt 0.710739 0.814388
vt 0.582348 0.814388
vt 0.582348 0.685997
vt 0.321476 0.686737
vt 0.449867 0.686737
vt 0.449867 0.815127
vt 0.321476 0.815127
vt 0.716563 0.165732
vt 0.716563 0.294122
vt 0.588172 0.294122
vt 0.588172 0.165732
vt 0.712415 0.685997
vt 0.840805 0.685997
vt 0.840805 0.814388
vt 0.712415 0.814388
vt 0.579933 0.685997
vt 0.579933 0.814388
vt 0.451542 0.814388
vt 0.451542 0.685997
vt 0.718239 0.165732
vt 0.846629 0.165732
vt 0.846629 0.294122
vt 0.718239 0.294122
vt 0.129228 0.712413
vt 0.129228 0.840803
vt 0.000838 0.840803
vt 0.000838 0.712413
vt 0.718238 0.295798
vt 0.846629 0.295798
vt 0.846629 0.424188
vt 0.718238 0.424188
vt 0.840805 0.555931
vt 0.840805 0.684321
vt 0.712415 0.684321
vt 0.712415 0.555931
vt 0.129228 0.984623
vt 0.000838 0.984623
vt 0.000838 0.958945
vt 0.129228 0.958945
vt 0.288707 0.425865
vt 0.314386 0.425864
vt 0.314386 0.457962
vt 0.288707 0.457962
vt 0.284339 0.999162
vt 0.156582 0.999162
vt 0.156582 0.973484
vt 0.284339 0.973484
vt 0.939032 0.000838
vt 0.964710 0.000838
vt 0.964710 0.032936
vt 0.939032 0.032936
vt 0.808781 0.946130
vt 0.834459 0.946130
vt 0.834459 0.978228
vt 0.808781 0.978228
vt 0.285713 0.971808
vt 0.156582 0.971808
vt 0.156582 0.946130
vt 0.285713 0.946130
vt 0.896895 0.261578
vt 0.922573 0.261578
vt 0.922573 0.293675
vt 0.896895 0.293675
vt 0.945175 0.520766
vt 0.970853 0.520766
vt 0.970853 0.552863
vt 0.945175 0.552863
vt 0.424188 0.997308
vt 0.295798 0.997308
vt 0.295798 0.971630
vt 0.424188 0.971630
vt 0.288707 0.459638
vt 0.314386 0.459638
vt 0.314386 0.491736
vt 0.288707 0.491736
vt 0.939032 0.068385
vt 0.964710 0.068385
vt 0.964710 0.100483
vt 0.939032 0.100483
vt 0.990889 0.485316
vt 0.895513 0.485316
vt 0.895513 0.459638
vt 0.990889 0.459638
vt 0.288707 0.493412
vt 0.314386 0.493412
vt 0.314386 0.525509
vt 0.288707 0.525509
vt 0.943499 0.520766
vt 0.943499 0.552863
vt 0.895513 0.552863
vt 0.895513 0.520766
vt 0.969425 0.753544
vt 0.969425 0.785642
vt 0.925916 0.785642
vt 0.925916 0.753544
vt 0.874579 0.808817
vt 0.874579 0.811424
vt 0.842481 0.811424
vt 0.842481 0.808827
vt 0.962255 0.519090
vt 0.895513 0.519090
vt 0.895513 0.486992
vt 0.962255 0.486992
vt 0.133741 0.449867
vt 0.000838 0.449867
vt 0.000838 0.321476
vt 0.133740 0.321476
vt 0.454378 0.295798
vt 0.454379 0.424188
vt 0.321476 0.424189
vt 0.321476 0.295798
vt 0.415039 0.000838
vt 0.415039 0.133740
vt 0.286649 0.133740
vt 0.286649 0.000838
vt 0.454378 0.294122
vt 0.321476 0.294122
vt 0.321476 0.165732
vt 0.454379 0.165732
vt 0.586496 0.424188
vt 0.456055 0.424188
vt 0.456055 0.295798
vt 0.586496 0.295798
vt 0.584042 0.425865
vt 0.584042 0.554255
vt 0.453601 0.554255
vt 0.453601 0.425865
vt 0.586496 0.294122
vt 0.456055 0.294122
vt 0.456055 0.165732
vt 0.586496 0.165732
vt 0.677223 0.129228
vt 0.546782 0.129228
vt 0.546782 0.000838
vt 0.677223 0.000838
vt 0.287016 0.554255
vt 0.156582 0.554255
vt 0.156582 0.425864
vt 0.287031 0.425864
vt 0.451919 0.425865
vt 0.451925 0.554255
vt 0.321476 0.554255
vt 0.321476 0.425865
vt 0.545106 0.000838
vt 0.545106 0.131287
vt 0.416715 0.131287
vt 0.416715 0.000839
vt 0.131280 0.579933
vt 0.000838 0.579933
vt 0.000838 0.451543
vt 0.131272 0.451543
vt 0.319800 0.294122
vt 0.156582 0.294122
vt 0.156582 0.165732
vt 0.319800 0.165732
vt 0.284973 0.164056
vt 0.156582 0.164056
vt 0.156582 0.000838
vt 0.284973 0.000838
vt 0.129228 0.156582
vt 0.129228 0.319800
vt 0.000838 0.319800
vt 0.000838 0.156582
vt 0.319800 0.424188
vt 0.156582 0.424188
vt 0.156582 0.295798
vt 0.319800 0.295798
vt 0.581609 0.816064
vt 0.709840 0.816064
vt 0.709840 0.944454
vt 0.581609 0.944454
vt 0.937356 0.129069
vt 0.808966 0.129069
vt 0.808966 0.000838
vt 0.937356 0.000838
vt 0.156583 0.816064
vt 0.284814 0.816064
vt 0.284814 0.944454
vt 0.156582 0.944454
vt 0.579774 0.944454
vt 0.451542 0.944454
vt 0.451542 0.816064
vt 0.579773 0.816064
vt 0.285712 0.684321
vt 0.156582 0.684321
vt 0.156582 0.555931
vt 0.285712 0.555931
vt 0.000838 0.581613
vt 0.129228 0.581609
vt 0.129228 0.710737
vt 0.000838 0.710737
vt 0.449867 0.555931
vt 0.449867 0.685061
vt 0.321476 0.685061
vt 0.321476 0.555933
vt 0.580666 0.684321
vt 0.451542 0.684321
vt 0.451542 0.555931
vt 0.580672 0.555931
vt 0.842481 0.555931
vt 0.969551 0.555931
vt 0.969551 0.684321
vt 0.842481 0.684321
vt 0.449867 0.943874
vt 0.321476 0.943874
vt 0.321476 0.816803
vt 0.449867 0.816803
vt 0.840263 0.943134
vt 0.840263 0.816064
vt 0.968653 0.816064
vt 0.968653 0.943134
vt 0.838587 0.944454
vt 0.711516 0.944454
vt 0.711516 0.816064
vt 0.838586 0.816064
vt 0.449867 0.945550
vt 0.437027 0.969954
vt 0.308637 0.969954
vt 0.295798 0.945550
vt 0.440717 0.159821
vt 0.286649 0.159821
vt 0.299488 0.135416
vt 0.427878 0.135417
vt 0.964541 0.130904
vt 0.988945 0.143743
vt 0.988945 0.272134
vt 0.964541 0.284973
vt 0.715785 0.425865
vt 0.844175 0.425865
vt 0.844175 0.554255
vt 0.715785 0.554255
vt 0.962865 0.284973
vt 0.938461 0.272134
vt 0.938461 0.143743
vt 0.962865 0.130904
vt 0.582348 0.555931
vt 0.710739 0.555931
vt 0.710739 0.684321
vt 0.582348 0.684321
vt 0.709999 0.946130
vt 0.709999 0.971808
vt 0.581609 0.971808
vt 0.581609 0.946130
vt 0.976695 0.332560
vt 0.848305 0.332560
vt 0.848305 0.300463
vt 0.976695 0.300463
vt 0.939032 0.034612
vt 0.964710 0.034612
vt 0.964710 0.066709
vt 0.939032 0.066709
vt 0.129228 0.923496
vt 0.000838 0.923496
vt 0.000838 0.891398
vt 0.129228 0.891398
vt 0.968028 0.972209
vt 0.968019 0.997887
vt 0.840263 0.997843
vt 0.840272 0.972165
vt 0.976062 0.400108
vt 0.848305 0.400108
vt 0.848305 0.368010
vt 0.976062 0.368010
vt 0.976062 0.366334
vt 0.848305 0.366334
vt 0.848305 0.334236
vt 0.976062 0.334236
vt 0.969393 0.944810
vt 0.969393 0.970488
vt 0.840263 0.970489
vt 0.840263 0.944810
vt 0.806718 0.163002
vt 0.677588 0.163002
vt 0.677588 0.130904
vt 0.806718 0.130904
vt 0.675912 0.163002
vt 0.546782 0.163002
vt 0.546782 0.130904
vt 0.675912 0.130904
vt 0.579933 0.946130
vt 0.579933 0.971808
vt 0.451542 0.971808
vt 0.451542 0.946130
vt 0.936785 0.163002
vt 0.808394 0.163002
vt 0.808394 0.130904
vt 0.936785 0.130904
vt 0.129228 0.957269
vt 0.000838 0.957269
vt 0.000838 0.925172
vt 0.129228 0.925172
vt 0.537823 0.135416
vt 0.537823 0.161095
vt 0.442393 0.161095
vt 0.442393 0.135416
vt 0.896895 0.227804
vt 0.922573 0.227804
vt 0.922573 0.259902
vt 0.896895 0.259902
vt 0.807105 0.978228
vt 0.711728 0.978228
vt 0.711675 0.946130
vt 0.807105 0.946130
vt 0.990942 0.457962
vt 0.895513 0.457962
vt 0.895566 0.425865
vt 0.990942 0.425865
vt 0.880403 0.420800
vt 0.848305 0.420800
vt 0.848307 0.401783
vt 0.880405 0.401787
vt 0.928992 0.165732
vt 0.928992 0.226128
vt 0.896895 0.226128
vt 0.896895 0.165745
vt 0.147884 0.231634
vt 0.133461 0.290269
vt 0.130904 0.289814
vt 0.130904 0.223072
vt 0.130904 0.221227
vt 0.130904 0.160830
vt 0.149437 0.156582
vt 0.133506 0.221396
vt 0.973902 0.751868
vt 0.925916 0.751868
vt 0.925916 0.719771
vt 0.973902 0.719771
vt 0.287388 0.681517
vt 0.319486 0.681517
vt 0.319486 0.804565
vt 0.287388 0.804565
vt 0.009248 0.889722
vt 0.000838 0.842479
vt 0.124670 0.846887
vt 0.132296 0.889722
vt 0.287388 0.555931
vt 0.319486 0.555931
vt 0.319486 0.679841
vt 0.287388 0.679841
vt 0.890842 0.298787
vt 0.848305 0.289642
vt 0.848305 0.165732
vt 0.895219 0.175817
vt 0.973902 0.718095
vt 0.925916 0.718095
vt 0.925916 0.685997
vt 0.973902 0.685997
vt 0.892143 0.685997
vt 0.924240 0.685997
vt 0.924240 0.807141
vt 0.892143 0.807141
vt 0.842481 0.685997
vt 0.890467 0.685997
vt 0.890467 0.807141
vt 0.842481 0.807141
vt 0.287388 0.806241
vt 0.319486 0.806241
vt 0.319486 0.927384
vt 0.287388 0.927384
vt 0.893837 0.547008
vt 0.845851 0.547008
vt 0.845851 0.425865
vt 0.893837 0.425865
vt 0.154906 0.154906
vt 0.000838 0.154906
vt 0.000838 0.000838
vt 0.154906 0.000838
vn -1.000000 -0.000000 0.000000
vn 1.000000 0.000000 0.000000
vn -1.000000 0.000000 0.000100
vn 0.000000 1.000000 0.000000
vn 1.000000 0.001600 0.000000
vn 0.000000 -1.000000 0.000000
vn -0.984500 0.175300 0.000000
vn 0.000000 0.000000 -1.000000
vn -0.000000 -0.000000 1.000000
vn 0.526100 0.850400 0.000000
vn 0.526100 -0.850400 0.000000
vn 0.526100 0.000000 -0.850400
vn 0.526100 0.000000 0.850400
vn 0.286500 -0.958100 0.000200
vn 0.997900 0.064900 0.000100
vn 0.977700 -0.210200 0.000000
usemtl Material
s off
f 130/1/1 132/2/1 139/3/1 135/4/1
f 3/5/2 134/6/2 143/7/2 7/8/2
f 146/9/1 148/10/1 155/11/1 151/12/1
f 11/13/2 150/14/2 159/15/2 15/16/2
f 162/17/3 164/18/3 171/19/3 167/20/3
f 19/21/2 166/22/2 175/23/2 23/24/2
f 178/25/1 180/26/1 187/27/1 183/28/1
f 27/29/2 182/30/2 191/31/2 31/32/2
f 210/33/1 212/34/1 219/35/1 215/36/1
f 43/37/2 214/38/2 223/39/2 47/40/2
f 226/41/1 228/42/1 235/43/1 231/44/1
f 51/45/2 230/46/2 239/47/2 55/48/2
f 242/49/1 244/50/1 251/51/1 247/52/1
f 257/53/4 261/54/4 265/55/4 259/56/4
f 258/57/1 260/58/1 267/59/1 263/60/1
f 273/61/4 277/62/4 281/63/4 275/64/4
f 274/65/1 276/66/1 283/67/1 279/68/1
f 75/69/2 278/70/2 287/71/2 79/72/2
f 289/73/4 293/74/4 297/75/4 291/76/4
f 290/77/1 292/78/1 299/79/1 295/80/1
f 83/81/2 294/82/2 303/83/2 87/84/2
f 305/85/4 309/86/4 313/87/4 307/88/4
f 306/89/1 308/90/1 315/91/1 311/92/1
f 91/93/2 310/94/2 319/95/2 95/96/2
f 321/97/4 325/98/4 329/99/4 323/100/4
f 99/101/5 326/102/5 335/103/5 103/104/5
f 344/105/6 348/106/6 350/107/6 352/108/6
f 360/109/6 364/110/6 366/111/6 368/112/6
f 376/113/4 384/114/4 382/115/4 380/116/4
f 123/117/7 127/118/7 383/119/7 374/120/7
usemtl Corps
f 129/121/4 133/122/4 137/123/4 131/124/4
f 136/125/6 140/126/6 142/127/6 144/128/6
f 2/129/8 138/130/8 141/131/8 6/132/8
f 5/133/9 8/134/9 4/135/9 1/136/9
f 145/137/4 149/138/4 153/139/4 147/140/4
f 152/141/6 156/142/6 158/143/6 160/144/6
f 10/145/8 154/146/8 157/147/8 14/148/8
f 13/149/9 16/150/9 12/151/9 9/152/9
f 161/153/4 165/154/4 169/155/4 163/156/4
f 168/157/6 172/158/6 174/159/6 176/160/6
f 18/161/8 170/162/8 173/163/8 22/164/8
f 21/165/9 24/166/9 20/167/9 17/168/9
f 177/169/4 181/170/4 185/171/4 179/172/4
f 184/173/6 188/174/6 190/175/6 192/176/6
f 26/177/8 186/178/8 189/179/8 30/180/8
f 29/181/9 32/182/9 28/183/9 25/184/9
f 209/185/4 213/186/4 217/187/4 211/188/4
f 216/189/6 220/190/6 222/191/6 224/192/6
f 42/193/8 218/194/8 221/195/8 46/196/8
f 45/197/9 48/198/9 44/199/9 41/200/9
f 225/201/4 229/202/4 233/203/4 227/204/4
f 232/205/6 236/206/6 238/207/6 240/208/6
f 50/209/8 234/210/8 237/211/8 54/212/8
f 53/213/9 56/214/9 52/215/9 49/216/9
f 241/217/4 245/218/4 249/219/4 243/220/4
f 248/221/6 252/222/6 254/223/6 256/224/6
f 58/225/8 250/226/8 253/227/8 62/228/8
f 61/229/9 64/230/9 60/231/9 57/232/9
usemtl Embouchure_+_Arrière
f 193/233/10 197/234/10 201/235/10 195/236/10
f 200/237/11 204/238/11 206/239/11 208/240/11
f 34/241/12 202/242/12 205/243/12 38/244/12
f 35/245/2 198/246/2 207/247/2 39/248/2
f 37/249/13 40/250/13 36/251/13 33/252/13
f 59/253/2 246/254/2 255/255/2 63/256/2
usemtl Viseur
f 264/257/6 268/258/6 270/259/6 272/260/6
f 66/261/8 266/262/8 269/263/8 70/264/8
f 67/265/2 262/266/2 271/267/2 71/268/2
f 69/269/9 72/270/9 68/271/9 65/272/9
f 280/273/6 284/274/6 286/275/6 288/276/6
f 74/277/8 282/278/8 285/279/8 78/280/8
f 77/281/9 80/282/9 76/283/9 73/284/9
f 296/285/6 300/286/6 302/287/6 304/288/6
f 82/289/8 298/290/8 301/291/8 86/292/8
f 85/293/9 88/294/9 84/295/9 81/296/9
f 312/297/6 316/298/6 318/299/6 320/300/6
f 90/301/8 314/302/8 317/303/8 94/304/8
f 93/305/9 96/306/9 92/307/9 89/308/9
f 328/309/6 332/310/6 334/311/6 336/312/6
f 322/313/1 324/314/1 331/315/1 327/316/1
f 98/317/8 330/318/8 333/319/8 102/320/8
f 101/321/9 104/322/9 100/323/9 97/324/9
usemtl Gachette
f 369/325/14 371/326/14 377/327/14 373/328/14
f 370/329/15 375/330/15 379/331/15 372/332/15
f 122/333/9 126/334/9 381/335/9 378/336/9
f 125/337/8 121/338/8 124/339/8 128/340/8
usemtl Poignet
f 353/341/4 357/342/4 361/343/4 355/344/4
f 354/345/7 356/346/7 363/347/7 359/348/7
f 114/349/8 362/350/8 365/351/8 118/352/8
f 115/353/16 358/354/16 367/355/16 119/356/16
f 117/357/9 120/358/9 116/359/9 113/360/9
usemtl Stabilisateur
f 337/361/4 341/362/4 345/363/4 339/364/4
f 338/365/1 340/366/1 347/367/1 343/368/1
f 106/369/8 346/370/8 349/371/8 110/372/8
f 107/373/2 342/374/2 351/375/2 111/376/2
f 109/377/9 112/378/9 108/379/9 105/380/9
usemtl Trou
f 194/381/1 196/382/1 203/383/1 199/384/1
